<svg width="920" height="1200" viewBox="0 0 920 1200" fill="none" xmlns="http://www.w3.org/2000/svg">
<g clip-path="url(#clip0_157_13)">
<rect width="920" height="1200" fill="white"/>
<line x1="979" y1="27.5001" x2="-3.27334e-08" y2="27.5" stroke="#FAFAFA"/>
<line x1="979" y1="82.5001" x2="-3.27334e-08" y2="82.5" stroke="#FAFAFA"/>
<line x1="979" y1="137.5" x2="-3.27334e-08" y2="137.5" stroke="#FAFAFA"/>
<line x1="979" y1="192.5" x2="-3.27334e-08" y2="192.5" stroke="#FAFAFA"/>
<line x1="979" y1="247.5" x2="-3.27334e-08" y2="247.5" stroke="#FAFAFA"/>
<line x1="979" y1="302.5" x2="-3.27334e-08" y2="302.5" stroke="#FAFAFA"/>
<line x1="979" y1="357.5" x2="-3.27334e-08" y2="357.5" stroke="#FAFAFA"/>
<line x1="979" y1="412.5" x2="-3.27334e-08" y2="412.5" stroke="#FAFAFA"/>
<line x1="979" y1="467.5" x2="-3.27334e-08" y2="467.5" stroke="#FAFAFA"/>
<line x1="979" y1="522.5" x2="-3.27334e-08" y2="522.5" stroke="#FAFAFA"/>
<line x1="979" y1="577.5" x2="-3.27334e-08" y2="577.5" stroke="#FAFAFA"/>
<line x1="979" y1="632.5" x2="-3.27334e-08" y2="632.5" stroke="#FAFAFA"/>
<line x1="979" y1="687.5" x2="-3.27334e-08" y2="687.5" stroke="#FAFAFA"/>
<line x1="979" y1="742.5" x2="-3.27334e-08" y2="742.5" stroke="#FAFAFA"/>
<line x1="979" y1="797.5" x2="-3.27334e-08" y2="797.5" stroke="#FAFAFA"/>
<line x1="979" y1="852.5" x2="-3.27334e-08" y2="852.5" stroke="#FAFAFA"/>
<line x1="979" y1="907.5" x2="-3.27334e-08" y2="907.5" stroke="#FAFAFA"/>
<line x1="979" y1="962.5" x2="-3.27334e-08" y2="962.5" stroke="#FAFAFA"/>
<line x1="979" y1="1017.5" x2="-3.27334e-08" y2="1017.5" stroke="#FAFAFA"/>
<line x1="979" y1="1072.5" x2="-3.27334e-08" y2="1072.5" stroke="#FAFAFA"/>
<line x1="979" y1="1127.5" x2="-3.27334e-08" y2="1127.5" stroke="#FAFAFA"/>
<line x1="979" y1="1182.5" x2="-3.27334e-08" y2="1182.5" stroke="#FAFAFA"/>
<line x1="47.5" y1="-29" x2="47.4999" y2="1279" stroke="#FAFAFA"/>
<line x1="102.5" y1="-29" x2="102.5" y2="1279" stroke="#FAFAFA"/>
<line x1="157.5" y1="-29" x2="157.5" y2="1279" stroke="#FAFAFA"/>
<line x1="212.5" y1="-29" x2="212.5" y2="1279" stroke="#FAFAFA"/>
<line x1="267.5" y1="-29" x2="267.5" y2="1279" stroke="#FAFAFA"/>
<line x1="322.5" y1="-29" x2="322.5" y2="1279" stroke="#FAFAFA"/>
<line x1="377.5" y1="-29" x2="377.5" y2="1279" stroke="#FAFAFA"/>
<line x1="432.5" y1="-29" x2="432.5" y2="1279" stroke="#FAFAFA"/>
<line x1="487.5" y1="-29" x2="487.5" y2="1279" stroke="#FAFAFA"/>
<line x1="542.5" y1="-29" x2="542.5" y2="1279" stroke="#FAFAFA"/>
<line x1="597.5" y1="-29" x2="597.5" y2="1279" stroke="#FAFAFA"/>
<line x1="652.5" y1="-29" x2="652.5" y2="1279" stroke="#FAFAFA"/>
<line x1="707.5" y1="-29" x2="707.5" y2="1279" stroke="#FAFAFA"/>
<line x1="762.5" y1="-29" x2="762.5" y2="1279" stroke="#FAFAFA"/>
<line x1="817.5" y1="-29" x2="817.5" y2="1279" stroke="#FAFAFA"/>
<line x1="872.5" y1="-29" x2="872.5" y2="1279" stroke="#FAFAFA"/>
</g>
<defs>
<clipPath id="clip0_157_13">
<rect width="920" height="1200" fill="white"/>
</clipPath>
</defs>
</svg>
