<svg xmlns="http://www.w3.org/2000/svg" viewBox="0 0 145.52 143.5"><defs><style>.cls-1{fill:#fbfbfb;}</style></defs><g id="Layer_2" data-name="Layer 2"><g id="Layer_1-2" data-name="Layer 1"><path class="cls-1" d="M87.31,10v9.11a10,10,0,0,1-10,10H39.1a10,10,0,0,0-10,10V77.32a10,10,0,0,1-10,10H10a10,10,0,0,1-10-10V10A10,10,0,0,1,10,0H77.31A10,10,0,0,1,87.31,10Z"/><path class="cls-1" d="M58.21,133.5v-9.11a10,10,0,0,1,10-10h38.21a10,10,0,0,0,10-10V66.18a10,10,0,0,1,10-10h9.1a10,10,0,0,1,10,10V133.5a10,10,0,0,1-10,10H68.21A10,10,0,0,1,58.21,133.5Z"/></g></g></svg>