<svg id="Layer_1" data-name="Layer 1" xmlns="http://www.w3.org/2000/svg" viewBox="0 0 145.52 143.5"><defs><style>.cls-1{fill:#1d1d1b;}</style></defs><path class="cls-1" d="M302.74,225.87V235a10,10,0,0,1-10,10H254.53a10,10,0,0,0-10,10v38.21a10,10,0,0,1-10,10h-9.1a10,10,0,0,1-10-10V225.87a10,10,0,0,1,10-10h67.31A10,10,0,0,1,302.74,225.87Z" transform="translate(-215.43 -215.87)"/><path class="cls-1" d="M273.64,349.37v-9.11a10,10,0,0,1,10-10h38.21a10,10,0,0,0,10-10V282.05a10,10,0,0,1,10-10H351a10,10,0,0,1,10,10v67.32a10,10,0,0,1-10,10H283.64A10,10,0,0,1,273.64,349.37Z" transform="translate(-215.43 -215.87)"/></svg>