<svg id="Layer_1" data-name="Layer 1" xmlns="http://www.w3.org/2000/svg" viewBox="0 0 145.52 143.5"><defs><style>.cls-1{fill:#1d1d1b;}</style></defs><path class="cls-1" d="M302.74,220.87V240a5,5,0,0,1-5,5H249.53a5,5,0,0,0-5,5v48.21a5,5,0,0,1-5,5h-19.1a5,5,0,0,1-5-5V220.87a5,5,0,0,1,5-5h77.31A5,5,0,0,1,302.74,220.87Z" transform="translate(-215.43 -215.87)"/><path class="cls-1" d="M273.64,354.37V335.26a5,5,0,0,1,5-5h48.21a5,5,0,0,0,5-5V277.05a5,5,0,0,1,5-5H356a5,5,0,0,1,5,5v77.32a5,5,0,0,1-5,5H278.64A5,5,0,0,1,273.64,354.37Z" transform="translate(-215.43 -215.87)"/></svg>