<svg width="800" height="425" viewBox="0 0 800 425" fill="none" xmlns="http://www.w3.org/2000/svg">
<rect width="800" height="425" fill="white"/>
<line x1="800" y1="158.5" x2="-4.37113e-08" y2="158.5" stroke="#F9F9F9"/>
<line x1="800" y1="58.5001" x2="-4.37113e-08" y2="58.5" stroke="#F9F9F9"/>
<line x1="72.5" y1="2.8549e-08" x2="72.5" y2="422" stroke="#F9F9F9"/>
<line x1="800" y1="208.5" x2="-4.37113e-08" y2="208.5" stroke="#F9F9F9"/>
<line x1="800" y1="108.5" x2="-4.37113e-08" y2="108.5" stroke="#F9F9F9"/>
<line x1="122.5" y1="2.8549e-08" x2="122.5" y2="422" stroke="#F9F9F9"/>
<line x1="800" y1="258.5" x2="-4.37113e-08" y2="258.5" stroke="#F9F9F9"/>
<line x1="172.5" y1="2.8549e-08" x2="172.5" y2="422" stroke="#F9F9F9"/>
<line x1="800" y1="308.5" x2="-4.37113e-08" y2="308.5" stroke="#F9F9F9"/>
<line x1="222.5" y1="2.8549e-08" x2="222.5" y2="422" stroke="#F9F9F9"/>
<line x1="800" y1="358.5" x2="-4.37113e-08" y2="358.5" stroke="#F9F9F9"/>
<line x1="272.5" y1="2.8549e-08" x2="272.5" y2="422" stroke="#F9F9F9"/>
<line x1="322.5" y1="2.8549e-08" x2="322.5" y2="422" stroke="#F9F9F9"/>
<line x1="372.5" y1="2.8549e-08" x2="372.5" y2="422" stroke="#F9F9F9"/>
<line x1="422.5" y1="2.8549e-08" x2="422.5" y2="422" stroke="#F9F9F9"/>
<line x1="472.5" y1="2.8549e-08" x2="472.5" y2="422" stroke="#F9F9F9"/>
<line x1="522.5" y1="2.8549e-08" x2="522.5" y2="422" stroke="#F9F9F9"/>
<line x1="572.5" y1="2.8549e-08" x2="572.5" y2="422" stroke="#F9F9F9"/>
<line x1="622.5" y1="2.8549e-08" x2="622.5" y2="422" stroke="#F9F9F9"/>
<line x1="672.5" y1="2.8549e-08" x2="672.5" y2="422" stroke="#F9F9F9"/>
<line x1="722.5" y1="2.8549e-08" x2="722.5" y2="422" stroke="#F9F9F9"/>
</svg>
